<!--  Generate with icomoon.io and Entypo+ font -->

<svg aria-hidden="true" style="position: absolute; width: 0; height: 0; overflow: hidden;"
  version="1.1" xmlns="http://www.w3.org/2000/svg" xmlns:xlink="http://www.w3.org/1999/xlink">
  <defs>

    <symbol id="icon-circle-with-minus" viewBox="0 0 40 40">
      <path fill="currentcolor"
        d="M20 3.2c-9.278 0-16.8 7.522-16.8 16.8s7.522 16.8 16.8 16.8 16.8-7.522 16.8-16.8c0-9.278-7.522-16.8-16.8-16.8zM30 22h-20v-4h20v4z"></path>
    </symbol>

    <symbol
      id="icon-circle-with-plus" viewBox="0 0 40 40">
      <path fill="currentcolor"
        d="M20 3.2c-9.278 0-16.8 7.522-16.8 16.8s7.522 16.8 16.8 16.8 16.8-7.522 16.8-16.8c0-9.278-7.522-16.8-16.8-16.8zM30 22h-8v8h-4v-8h-8v-4h8v-8h4v8h8v4z"></path>
    </symbol>

    <symbol
      id="icon-shopping-bag" viewBox="0 0 40 40">
      <path fill="currentcolor"
        d="M36.242 6.542c-0.59-0.512-3.812-3.462-4.414-3.982-0.598-0.518-1.512-0.56-2.204-0.56h-19.248c-0.69 0-1.604 0.042-2.204 0.56-0.602 0.52-3.824 3.472-4.414 3.982-0.594 0.512-1.086 1.286-0.928 2.384 0.158 1.102 3.78 27.322 3.874 27.946 0.092 0.622 0.636 1.114 1.296 1.128h24c0.66-0.014 1.204-0.506 1.296-1.13 0.094-0.622 3.716-26.844 3.876-27.946 0.156-1.096-0.336-1.87-0.93-2.382zM20 23.946c-6.496 0-7.886-9.192-8.174-11.086h3.674c0.552 2.762 1.808 7.488 4.5 7.488s3.95-4.726 4.5-7.488h3.676c-0.29 1.894-1.68 11.086-8.176 11.086zM6.34 8.012l3.66-4.012h20l3.66 4.012h-27.32z"></path>
    </symbol>

    <symbol
      id="icon-trash" viewBox="0 0 40 40">
      <path fill="currentcolor"
        d="M6.778 14.226l2.202 21.816c0.122 0.922 4.574 3.954 11.020 3.958 6.45-0.004 10.902-3.036 11.022-3.958l2.204-21.816c-3.368 1.884-8.402 2.774-13.226 2.774-4.82 0-9.856-0.89-13.222-2.774zM26.336 3.020l-1.718-1.902c-0.664-0.946-1.384-1.118-2.786-1.118h-3.662c-1.4 0-2.122 0.172-2.784 1.118l-1.718 1.902c-5.14 0.898-8.868 3.28-8.868 5.038v0.34c0 3.094 6.806 5.602 15.2 5.602 8.396 0 15.202-2.508 15.202-5.602v-0.34c0-1.758-3.726-4.14-8.866-5.038zM24.14 8.68l-2.14-2.68h-4l-2.136 2.68h-3.4c0 0 3.724-4.442 4.222-5.044 0.38-0.46 0.768-0.636 1.272-0.636h4.086c0.506 0 0.894 0.176 1.274 0.636 0.496 0.602 4.222 5.044 4.222 5.044h-3.4z"></path>
    </symbol>

    <symbol
      id="icon-rocket" viewBox="0 0 40 40">
      <path fill="currentcolor"
        d="M23.866 26.138c0 0 14.118-10.188 12.552-21.848-0.034-0.254-0.118-0.426-0.224-0.536-0.108-0.11-0.274-0.196-0.526-0.23-11.394-1.602-21.348 12.844-21.348 12.844-8.636-1.034-8.008 0.688-11.948 10.152-0.754 1.804 0.468 2.426 1.808 1.918 1.34-0.504 4.296-1.622 4.296-1.622l5.18 5.296c0 0-1.092 3.028-1.586 4.398-0.496 1.372 0.11 2.622 1.876 1.852 9.248-4.032 10.932-3.388 9.92-12.224zM25.884 14.306c-1.196-1.226-1.196-3.208 0-4.434 1.196-1.222 3.134-1.222 4.332 0 1.196 1.222 1.196 3.206 0 4.434-1.198 1.222-3.138 1.222-4.332 0z"></path>
    </symbol>

    <symbol
      id="icon-triangle-right" viewBox="0 0 40 40">
      <path fill="currentcolor" d="M30 20l-18 10v-20l18 10z"></path>
    </symbol>

    <symbol
      id="icon-forward" viewBox="0 0 40 40">
      <path fill="currentcolor"
        d="M24 23.748v8.714l14-13.38-14-13.144v7.966c-17.55 0-22 19.464-22 19.464 4.968-8.776 12.474-9.62 22-9.62z"></path>
    </symbol>

    <symbol
      id="icon-chevron-right" viewBox="0 0 40 40">
      <path fill="currentcolor"
        d="M18.326 9.032c0.836 0.816 9.004 9.39 9.004 9.39 0.446 0.438 0.67 1.008 0.67 1.578s-0.224 1.14-0.67 1.574c0 0-8.168 8.578-9.004 9.39-0.836 0.816-2.34 0.872-3.23 0-0.892-0.868-0.962-2.082 0-3.148l7.494-7.816-7.494-7.816c-0.962-1.066-0.892-2.282 0-3.152 0.89-0.872 2.394-0.818 3.23 0z"></path>
    </symbol>

    <symbol
      id="icon-chevron-left" viewBox="0 0 40 40">
      <path fill="currentcolor"
        d="M24.904 9.032c0.892 0.872 0.962 2.086 0 3.152l-7.494 7.816 7.494 7.816c0.962 1.066 0.892 2.282 0 3.148-0.89 0.872-2.394 0.816-3.23 0-0.836-0.812-9.004-9.39-9.004-9.39-0.446-0.434-0.67-1.004-0.67-1.574s0.224-1.14 0.67-1.578c0 0 8.168-8.574 9.004-9.39 0.836-0.818 2.34-0.872 3.23 0z"></path>
    </symbol>

    <symbol
      id="icon-spinner" viewBox="0 0 32 32">
      <path fill="currentcolor"
        d="M16 32c-4.274 0-8.292-1.664-11.314-4.686s-4.686-7.040-4.686-11.314c0-3.026 0.849-5.973 2.456-8.522 1.563-2.478 3.771-4.48 6.386-5.791l1.344 2.682c-2.126 1.065-3.922 2.693-5.192 4.708-1.305 2.069-1.994 4.462-1.994 6.922 0 7.168 5.832 13 13 13s13-5.832 13-13c0-2.459-0.69-4.853-1.994-6.922-1.271-2.015-3.066-3.643-5.192-4.708l1.344-2.682c2.615 1.31 4.824 3.313 6.386 5.791 1.607 2.549 2.456 5.495 2.456 8.522 0 4.274-1.664 8.292-4.686 11.314s-7.040 4.686-11.314 4.686z"></path>
    </symbol>

    <symbol
      id="icon-emoji-neutral" viewBox="0 0 40 40">
      <path fill="currentcolor"
        d="M20 0.8c-10.604 0-19.2 8.596-19.2 19.2s8.596 19.2 19.2 19.2c10.602 0 19.2-8.596 19.2-19.202 0-10.602-8.598-19.198-19.2-19.198zM20 35.198c-8.394 0-15.2-6.804-15.2-15.2 0-8.394 6.804-15.2 15.2-15.2 8.394 0 15.2 6.804 15.2 15.2s-6.806 15.2-15.2 15.2zM25 12.502c-1.656 0-3 1.566-3 3.498s1.344 3.5 3 3.5c1.658 0 3-1.566 3-3.5s-1.342-3.498-3-3.498zM15.002 19.5c1.656 0 2.998-1.566 2.998-3.5s-1.344-3.5-3-3.5c-1.656 0-3 1.566-3 3.5s1.344 3.5 3.002 3.5zM26 24.5h-12c-0.828 0-1.5 0.672-1.5 1.5s0.672 1.5 1.5 1.5h12c0.828 0 1.5-0.672 1.5-1.5 0-0.83-0.67-1.5-1.5-1.5z"></path>
    </symbol>

    <symbol
      id="icon-emoji-sad" viewBox="0 0 40 40">
      <path fill="currentcolor"
        d="M20.002 0.8c-10.606 0-19.202 8.596-19.202 19.2 0 10.606 8.596 19.202 19.202 19.202 10.602 0 19.2-8.596 19.2-19.202-0.002-10.604-8.6-19.2-19.2-19.2zM20 35.198c-8.394 0-15.2-6.804-15.2-15.2 0-8.394 6.804-15.2 15.2-15.2 8.394 0 15.2 6.804 15.2 15.2s-6.806 15.2-15.2 15.2zM25.002 19.5c1.656 0 3-1.566 3-3.5s-1.344-3.5-3-3.5c-1.656 0-3 1.566-3 3.5s1.342 3.5 3 3.5zM15.002 19.5c1.656 0 3-1.566 3-3.5s-1.344-3.5-3-3.5c-1.656 0-3 1.566-3 3.5s1.342 3.5 3 3.5zM20.004 22.5c-6.848 0-9.244 4.63-9.344 4.828-0.372 0.742-0.070 1.642 0.67 2.014 0.216 0.106 0.444 0.158 0.67 0.158 0.55 0 1.080-0.302 1.344-0.828 0.016-0.034 1.644-3.172 6.66-3.172 4.926 0 6.596 3.054 6.656 3.17 0.368 0.74 1.27 1.046 2.012 0.672 0.742-0.368 1.042-1.272 0.672-2.012-0.098-0.198-2.492-4.83-9.34-4.83z"></path>
    </symbol>

    <symbol id="icon-emoji-happy" viewBox="0 0 40 40">
      <path fill="currentcolor"
        d="M20 0.8c-10.604 0-19.2 8.596-19.2 19.2s8.596 19.2 19.2 19.2c10.602 0 19.2-8.596 19.2-19.202 0-10.602-8.598-19.198-19.2-19.198zM20 35.198c-8.394 0-15.2-6.804-15.2-15.2s6.804-15.198 15.2-15.198c8.394 0 15.202 6.804 15.202 15.2s-6.808 15.198-15.202 15.198zM15.002 19.5c1.656 0 2.998-1.566 2.998-3.5s-1.344-3.5-3-3.5-3 1.566-3 3.5 1.344 3.5 3.002 3.5zM25 19.5c1.658 0 3-1.566 3-3.5s-1.344-3.5-3-3.5-3 1.568-3 3.5 1.344 3.5 3 3.5zM28.682 22.672c-0.726-0.372-1.63-0.086-2.016 0.64-0.068 0.132-1.738 3.186-6.664 3.186-4.902 0-6.582-3.026-6.666-3.184-0.376-0.73-1.264-1.028-2.008-0.658-0.74 0.372-1.040 1.272-0.67 2.014 0.1 0.198 2.496 4.828 9.344 4.828 6.85 0 9.242-4.632 9.34-4.83 0.368-0.734 0.072-1.62-0.66-1.996z"></path>
    </symbol>

    <symbol id="icon-cross" viewBox="0 0 40 40">
      <path fill="currentcolor"
        d="M28.696 29.698c-0.938 0.938-2.458 0.938-3.394 0l-5.302-6.060-5.302 6.058c-0.938 0.938-2.458 0.938-3.394 0-0.938-0.938-0.938-2.458 0-3.394l5.516-6.3-5.518-6.304c-0.938-0.938-0.938-2.456 0-3.394s2.456-0.938 3.394 0l5.304 6.062 5.302-6.062c0.938-0.938 2.456-0.938 3.394 0s0.938 2.458 0 3.394l-5.516 6.304 5.516 6.3c0.938 0.938 0.938 2.458 0 3.396z"></path>
    </symbol>

    <symbol id="icon-search" viewBox="0 0 39 42">
      <path fill="currentcolor"
        d="M27 19.5c0-5.789-4.711-10.5-10.5-10.5s-10.5 4.711-10.5 10.5 4.711 10.5 10.5 10.5 10.5-4.711 10.5-10.5zM39 39c0 1.641-1.359 3-3 3-0.797 0-1.57-0.328-2.109-0.891l-8.039-8.016c-2.742 1.898-6.023 2.906-9.352 2.906-9.117 0-16.5-7.383-16.5-16.5s7.383-16.5 16.5-16.5 16.5 7.383 16.5 16.5c0 3.328-1.008 6.609-2.906 9.352l8.039 8.039c0.539 0.539 0.867 1.313 0.867 2.109z"></path>
    </symbol>

  </defs>
</svg>